<?xml version="1.0" standalone="no"?>
<!DOCTYPE svg PUBLIC "-//W3C//DTD SVG 20010904//EN"
 "http://www.w3.org/TR/2001/REC-SVG-20010904/DTD/svg10.dtd">
<svg version="1.0" xmlns="http://www.w3.org/2000/svg"
 width="1000.000000pt" height="1000.000000pt" viewBox="0 0 1000.000000 1000.000000"
 preserveAspectRatio="xMidYMid meet">
<metadata>
Created by potrace 1.11, written by Peter Selinger 2001-2013
</metadata>
<g transform="translate(0.000000,1000.000000) scale(0.100000,-0.100000)"
fill="#000000" stroke="none">
<path d="M4943 9623 c-7 -2 -13 -11 -13 -19 0 -9 -4 -23 -10 -33 -8 -16 -16
-17 -60 -10 -35 5 -60 4 -83 -5 -17 -7 -38 -11 -45 -9 -7 3 -38 2 -67 -2 -45
-5 -60 -13 -91 -45 -24 -24 -42 -36 -49 -30 -14 11 -57 16 -71 7 -6 -3 -26 -2
-45 3 -29 9 -36 7 -50 -9 -9 -11 -20 -16 -25 -11 -12 11 -155 -16 -209 -41
-11 -5 -55 -7 -97 -5 -57 2 -81 0 -89 -10 -6 -8 -17 -14 -24 -14 -6 0 -34 -12
-60 -26 -27 -14 -60 -24 -74 -24 -14 1 -30 1 -36 0 -5 -1 -20 -1 -33 0 -12 1
-25 -5 -28 -13 -3 -9 -13 -13 -24 -10 -14 4 -22 -2 -30 -21 -5 -14 -14 -26
-20 -26 -5 0 -10 -6 -10 -14 0 -7 -12 -16 -27 -19 -30 -7 -120 -89 -168 -155
-22 -30 -43 -45 -80 -57 -63 -21 -105 -51 -105 -74 0 -16 -29 -54 -99 -126
-10 -11 -27 -45 -38 -75 -10 -30 -22 -57 -27 -59 -15 -6 -98 -99 -118 -132
-10 -16 -22 -27 -27 -24 -5 3 -15 -11 -21 -31 -10 -28 -10 -49 0 -95 12 -56
12 -59 -13 -88 -14 -17 -33 -54 -42 -83 -10 -29 -22 -59 -28 -66 -6 -7 -7 -39
-4 -77 4 -37 2 -77 -4 -95 -8 -21 -8 -57 -1 -117 8 -72 8 -93 -4 -116 -31 -59
-22 -190 18 -287 9 -20 18 -61 22 -93 7 -54 6 -57 -18 -68 -14 -7 -22 -17 -19
-22 4 -6 6 -30 4 -53 -1 -23 3 -45 9 -49 5 -3 10 -19 10 -34 0 -29 50 -108 74
-117 8 -3 17 -16 20 -29 4 -15 15 -25 29 -27 20 -3 22 -9 24 -63 4 -88 11
-120 33 -140 11 -10 20 -24 20 -31 0 -7 8 -19 19 -26 15 -11 18 -24 16 -83 -2
-52 1 -74 13 -88 13 -14 13 -22 3 -44 -9 -19 -9 -29 -2 -31 6 -2 11 -15 11
-28 0 -14 7 -36 16 -49 17 -27 45 -117 48 -155 2 -41 36 -128 52 -134 7 -3 14
-11 14 -18 0 -7 14 -24 30 -38 17 -14 30 -29 30 -33 0 -5 13 -21 28 -35 15
-15 41 -58 57 -97 16 -38 46 -91 67 -116 21 -26 38 -51 38 -56 0 -5 18 -24 40
-42 27 -21 40 -40 40 -56 0 -25 52 -90 63 -79 4 4 7 38 7 75 0 68 18 224 44
394 8 50 17 139 20 199 4 74 14 135 31 190 69 227 76 257 70 299 -7 45 10 75
50 91 20 8 20 8 0 16 -12 4 -27 15 -34 23 -11 14 -9 20 8 38 12 13 21 26 21
31 0 12 -24 10 -38 -4 -14 -14 -18 34 -11 137 0 6 -3 37 -6 70 -8 68 -8 76 -2
128 3 27 0 37 -9 37 -18 0 -18 25 -1 42 7 7 19 42 26 78 6 36 14 77 17 93 16
82 227 217 347 221 9 0 17 4 17 8 0 4 9 8 20 8 11 0 20 -5 20 -10 0 -6 11 -3
24 6 14 8 33 15 43 14 24 -3 63 10 63 20 0 5 25 14 55 20 30 6 55 16 55 22 0
6 9 8 20 5 10 -3 21 0 23 6 2 8 55 12 163 13 87 1 166 4 174 7 29 11 75 20 85
18 6 -2 28 -5 50 -7 22 -3 45 -7 52 -9 7 -2 15 -1 17 4 6 9 43 8 52 -2 4 -4
20 -7 35 -7 15 0 30 -4 33 -9 7 -10 25 -9 42 1 6 4 44 5 85 2 78 -5 79 -5 132
-3 17 0 70 -7 117 -16 47 -9 105 -18 130 -19 25 -1 54 -7 65 -13 27 -13 141
-31 248 -39 48 -3 87 -10 87 -15 0 -5 9 -9 20 -9 32 0 152 -41 182 -61 14 -11
30 -19 35 -19 5 0 20 -10 33 -22 14 -13 27 -23 30 -23 26 -2 61 -56 74 -115 2
-14 12 -52 20 -85 9 -33 16 -75 16 -93 0 -18 9 -65 21 -105 11 -39 22 -92 25
-117 3 -25 8 -54 13 -65 21 -51 33 -100 37 -153 2 -31 7 -70 10 -87 3 -16 10
-75 15 -130 16 -166 25 -231 62 -435 31 -167 44 -260 73 -517 6 -46 14 -52 34
-28 26 31 40 17 41 -37 1 -85 16 -27 23 92 4 58 14 140 23 183 8 43 12 89 9
102 -8 33 -36 33 -36 0 0 -32 -17 -32 -31 -1 -9 18 -7 31 10 64 12 23 21 55
21 72 0 17 14 56 32 87 l32 56 -1 151 c-1 126 2 154 15 169 15 17 15 21 -1 49
-19 33 -16 115 8 178 7 19 15 58 19 85 7 50 29 118 53 165 17 33 16 84 -1 118
-7 15 -17 46 -21 68 -4 25 -16 51 -31 65 -33 31 -31 49 6 49 23 0 30 5 30 19
0 10 -7 24 -15 31 -8 7 -15 21 -15 32 0 29 -24 70 -63 105 -19 18 -38 40 -41
50 -3 10 -19 27 -36 36 -50 30 -90 68 -90 85 0 10 -11 30 -25 45 -19 20 -23
30 -15 39 29 35 60 90 54 99 -3 5 7 47 23 92 26 76 28 93 27 222 -2 168 -20
277 -80 490 -77 271 -158 391 -380 564 -55 43 -229 125 -244 116 -4 -3 -42 4
-85 15 -43 11 -81 17 -86 14 -16 -9 -162 18 -194 36 -16 10 -35 16 -40 14 -6
-3 -24 9 -40 26 -21 22 -38 30 -62 30 -37 0 -37 1 -24 -34 8 -20 6 -27 -14
-40 -13 -9 -31 -16 -39 -16 -19 0 -90 32 -94 43 -2 4 -11 7 -20 7 -9 0 -33 16
-51 35 -19 19 -44 38 -55 41 -12 4 -38 18 -58 32 -21 13 -43 22 -51 19 -7 -3
-24 1 -38 9 -23 13 -130 18 -156 7z m-1253 -333 c0 -5 -2 -10 -4 -10 -3 0 -8
5 -11 10 -3 6 -1 10 4 10 6 0 11 -4 11 -10z"/>
<path d="M6228 6425 c-2 -2 -79 -6 -172 -9 -185 -7 -203 -12 -255 -71 -29 -33
-43 -74 -21 -60 6 3 10 2 10 -3 0 -13 18 -14 200 -14 98 0 183 5 210 12 65 18
170 20 204 4 35 -17 76 -18 76 -3 0 6 -13 24 -29 41 -82 87 -107 102 -167 104
-29 1 -54 0 -56 -1z"/>
<path d="M4414 6339 c-2 -4 -19 -5 -37 -2 -50 8 -156 -24 -196 -59 -34 -30
-34 -31 -9 -25 16 4 28 3 30 -4 11 -33 94 -40 468 -41 204 -1 200 -1 200 23 0
54 -55 92 -150 103 -89 10 -300 13 -306 5z"/>
<path d="M5898 6110 c-57 -17 -88 -43 -88 -74 0 -36 36 -113 58 -125 18 -9 75
-15 129 -12 26 1 38 9 59 40 14 22 28 58 31 81 5 39 7 41 32 35 35 -9 91 -44
91 -58 0 -6 -7 -18 -16 -28 -14 -16 -11 -18 58 -26 58 -7 76 -6 88 5 13 12 11
17 -17 42 -18 17 -33 34 -33 40 0 5 -7 10 -15 10 -9 0 -18 7 -21 15 -4 8 -15
15 -27 15 -11 0 -28 6 -36 14 -9 7 -31 18 -50 25 -38 12 -202 14 -243 1z m82
-111 c0 -5 -4 -9 -10 -9 -5 0 -10 7 -10 16 0 8 5 12 10 9 6 -3 10 -10 10 -16z
m-60 -9 c0 -11 -4 -20 -10 -20 -5 0 -10 9 -10 20 0 11 5 20 10 20 6 0 10 -9
10 -20z m110 -50 c0 -5 -13 -10 -30 -10 -16 0 -30 5 -30 10 0 6 14 10 30 10
17 0 30 -4 30 -10z"/>
<path d="M4571 6043 c-84 -13 -133 -34 -237 -100 -63 -39 -84 -59 -84 -80 0
-13 10 -14 68 -8 79 8 87 12 71 31 -9 11 -8 19 6 34 28 30 44 24 65 -24 10
-24 27 -46 37 -49 28 -7 125 -8 156 -1 35 7 67 67 67 125 l0 42 43 -7 42 -6
-25 19 c-23 18 -96 43 -117 40 -4 -1 -46 -8 -92 -16z m19 -73 c0 -5 -7 -10
-15 -10 -8 0 -15 5 -15 10 0 6 7 10 15 10 8 0 15 -4 15 -10z m30 -20 c0 -11
-4 -20 -10 -20 -5 0 -10 9 -10 20 0 11 5 20 10 20 6 0 10 -9 10 -20z m-56 -16
c9 -22 8 -24 -9 -24 -8 0 -15 9 -15 20 0 24 15 27 24 4z"/>
<path d="M5684 5955 c-4 -8 -4 -21 -1 -29 3 -8 -2 -16 -14 -19 -26 -7 -24 -27
4 -27 39 0 50 14 43 54 -7 37 -22 47 -32 21z"/>
<path d="M4875 5918 c0 -42 1 -43 40 -49 42 -7 59 -3 50 11 -3 5 -21 6 -40 3
-37 -6 -46 6 -20 27 14 12 14 15 -1 31 -25 27 -29 24 -29 -23z"/>
<path d="M3265 5605 c2 -22 11 -60 19 -85 l14 -45 0 35 c0 19 -8 58 -19 85
l-19 50 5 -40z"/>
<path d="M3520 5566 c0 -9 7 -16 16 -16 17 0 14 22 -4 28 -7 2 -12 -3 -12 -12z"/>
<path d="M5925 4524 c-68 -37 -83 -43 -155 -53 -102 -16 -208 -41 -239 -57
-14 -8 -40 -14 -57 -14 -48 0 -94 -11 -88 -21 8 -14 60 -11 103 7 28 11 55 14
97 9 33 -4 64 -7 70 -7 6 -1 51 16 100 37 54 23 102 38 122 36 24 -1 43 7 71
31 54 45 39 66 -24 32z"/>
<path d="M4730 4465 c0 -3 24 -16 53 -30 39 -17 93 -28 203 -41 157 -18 178
-19 288 -16 58 2 67 4 57 16 -9 11 -41 14 -129 15 -133 0 -234 12 -340 41 -69
19 -132 26 -132 15z"/>
<path d="M3770 4030 c0 -5 5 -10 10 -10 6 0 10 5 10 10 0 6 -4 10 -10 10 -5 0
-10 -4 -10 -10z"/>
<path d="M3801 4016 c-7 -8 -20 -12 -31 -9 -14 4 -22 -2 -29 -18 -5 -13 -23
-33 -39 -44 -17 -10 -29 -22 -26 -26 2 -4 -9 -13 -26 -21 -16 -7 -30 -17 -30
-21 0 -5 -13 -6 -30 -2 -19 4 -30 3 -30 -4 0 -6 -6 -11 -13 -11 -9 0 -12 -10
-9 -30 3 -23 0 -30 -12 -30 -20 0 -76 -49 -76 -66 0 -8 -6 -11 -17 -7 -13 5
-15 2 -11 -15 4 -16 2 -22 -9 -22 -8 0 -24 -11 -35 -25 -11 -14 -24 -23 -29
-20 -5 4 -9 -1 -9 -9 0 -9 -5 -16 -11 -16 -5 0 -7 -4 -4 -10 3 -5 1 -10 -5
-10 -6 0 -22 -12 -36 -27 -14 -16 -23 -22 -19 -15 6 11 3 11 -14 0 -14 -8 -19
-19 -15 -32 4 -11 2 -16 -4 -12 -6 3 -13 2 -17 -4 -4 -6 -11 -8 -16 -5 -5 4
-9 -1 -9 -10 0 -9 -4 -14 -9 -10 -5 3 -25 -11 -44 -30 -23 -24 -40 -33 -51
-29 -11 4 -15 2 -11 -8 3 -8 -1 -14 -12 -15 -36 -3 -58 -10 -58 -19 0 -5 -10
-20 -22 -34 -21 -22 -23 -22 -23 -4 0 16 -2 17 -10 4 -9 -13 -11 -13 -20 0 -5
8 -10 10 -10 5 0 -6 -18 -18 -40 -28 -23 -9 -43 -23 -46 -30 -3 -8 -18 -13
-34 -12 -19 1 -30 -3 -30 -12 0 -7 -6 -13 -14 -13 -8 0 -21 -8 -28 -17 -7 -10
-19 -19 -27 -21 -8 -2 -27 -12 -43 -23 -15 -11 -28 -17 -28 -13 0 4 -13 -4
-28 -19 -16 -15 -31 -24 -35 -20 -4 3 -7 1 -7 -5 0 -7 -7 -12 -16 -12 -8 0
-13 -4 -10 -9 3 -5 -14 -14 -39 -20 -27 -7 -45 -17 -45 -25 0 -8 -13 -17 -30
-21 -16 -4 -30 -12 -30 -18 0 -12 -69 -47 -93 -47 -8 0 -7 -3 2 -9 12 -8 9
-11 -11 -16 -14 -4 -35 -18 -47 -31 -11 -13 -27 -24 -33 -24 -16 0 -58 -44
-58 -59 0 -6 -8 -11 -18 -11 -9 0 -31 -16 -47 -36 -17 -20 -40 -40 -53 -45
-13 -5 -30 -25 -38 -44 -8 -20 -19 -33 -25 -29 -13 8 -49 -24 -49 -44 0 -8
-16 -29 -35 -48 -22 -20 -30 -34 -22 -37 6 -3 -5 -12 -25 -21 -21 -9 -38 -21
-38 -27 0 -5 -4 -7 -10 -4 -6 4 -10 -5 -10 -19 0 -21 -5 -26 -25 -26 -16 0
-23 -4 -19 -13 3 -8 -11 -26 -33 -43 -20 -15 -45 -35 -54 -44 -43 -40 -79 -63
-224 -140 -44 -24 -91 -50 -105 -60 -14 -9 -38 -24 -55 -32 -46 -23 -129 -71
-135 -77 -3 -3 -23 -15 -45 -26 -63 -30 -66 -34 -53 -59 39 -73 288 -354 484
-546 530 -518 1158 -905 1854 -1144 478 -165 919 -245 1483 -272 l138 -6 -27
68 c-14 38 -56 157 -94 264 -145 416 -216 615 -306 861 -54 148 -76 218 -124
379 -12 41 -31 93 -43 115 -31 62 -88 258 -77 269 6 6 15 4 25 -4 23 -19 18
-5 -12 38 -16 22 -43 60 -60 85 -18 25 -51 95 -73 157 -22 62 -76 185 -121
273 -44 89 -92 188 -105 220 -14 32 -38 88 -55 125 -45 96 -95 255 -109 344
-21 128 -8 299 33 462 20 76 38 140 41 143 6 6 -22 123 -39 160 -8 17 -15 36
-15 42 0 6 -6 11 -12 11 -9 0 -8 4 2 10 8 5 10 10 4 10 -6 0 -17 -6 -23 -14z
m-31 -20 c0 -3 -4 -8 -10 -11 -5 -3 -10 -1 -10 4 0 6 5 11 10 11 6 0 10 -2 10
-4z"/>
<path d="M6420 3683 c0 -10 7 -40 15 -68 9 -27 20 -81 26 -120 5 -38 21 -137
34 -220 32 -191 47 -450 35 -570 -16 -152 -56 -344 -95 -454 -11 -32 -15 -86
-15 -211 0 -130 -4 -183 -19 -241 -12 -47 -19 -112 -19 -179 -1 -152 -9 -197
-40 -225 -25 -23 -25 -25 -12 -65 12 -36 11 -62 -4 -193 -26 -231 -36 -278
-66 -309 -28 -28 -29 -30 -61 -352 -5 -55 -14 -118 -19 -140 -5 -23 -12 -61
-15 -85 -9 -65 -59 -123 -62 -73 -1 9 -8 37 -17 62 -21 60 -43 142 -56 213 -6
31 -16 55 -21 52 -5 -4 -5 -13 0 -24 6 -10 10 -26 10 -37 0 -20 1 -36 20 -169
16 -115 21 -139 30 -148 12 -12 306 62 491 124 1013 335 1889 981 2509 1847
45 63 84 125 87 137 3 14 -1 38 -10 56 -9 18 -16 36 -16 41 0 5 -9 28 -20 50
-11 23 -20 45 -20 48 0 4 -17 35 -37 69 -43 73 -105 131 -171 161 -26 11 -72
34 -103 50 -31 16 -97 43 -145 59 -49 16 -145 56 -214 89 -137 66 -221 101
-321 137 -37 12 -77 29 -90 36 -24 13 -30 15 -49 18 -6 0 -15 13 -21 28 -8 20
-12 24 -18 14 -7 -11 -12 -9 -21 9 -8 15 -18 20 -31 17 -10 -3 -19 -1 -19 5 0
5 -5 6 -10 3 -14 -9 -71 5 -65 15 3 4 0 19 -5 32 -10 23 -10 23 -6 1 2 -13 0
-23 -5 -23 -5 0 -9 -7 -9 -15 0 -8 -5 -15 -11 -15 -6 0 -8 7 -5 15 3 8 9 22
12 30 4 10 0 15 -10 15 -9 0 -16 8 -16 17 0 13 -3 14 -12 5 -16 -16 -39 -15
-32 2 3 8 0 17 -5 21 -6 3 -8 11 -5 17 5 7 2 8 -6 3 -7 -4 -29 -9 -49 -11 -19
-1 -37 -7 -39 -13 -7 -22 -32 -11 -32 13 0 14 -4 28 -10 31 -5 3 -10 2 -10 -3
0 -5 -9 -12 -19 -15 -15 -3 -21 2 -26 22 -7 24 -8 25 -15 6 -7 -17 -9 -17 -9
-2 -1 11 -9 17 -25 17 -13 0 -26 7 -30 15 -3 9 -19 15 -41 15 -19 0 -34 3 -34
8 4 27 -3 34 -28 28 -16 -3 -23 -3 -17 0 17 7 5 44 -12 37 -8 -3 -14 0 -14 7
0 6 -4 8 -10 5 -5 -3 -15 -3 -21 1 -8 4 -7 9 2 15 9 5 2 7 -18 4 -23 -2 -33 1
-33 10 0 19 -30 27 -48 13 -13 -11 -14 -10 -9 12 5 22 3 26 -21 29 -15 2 -37
3 -49 3 -13 0 -23 5 -23 11 0 6 -3 7 -6 4 -4 -3 -16 0 -27 8 -13 9 -26 11 -36
6 -10 -6 -45 -2 -91 10 -41 11 -86 17 -98 14 -15 -4 -21 -2 -17 5 3 5 -2 10
-12 10 -17 1 -17 1 0 14 22 17 22 26 0 26 -9 0 -32 5 -50 12 -28 10 -36 10
-43 -2 -5 -8 -6 -18 -4 -22 3 -4 0 -8 -6 -8 -7 0 -9 9 -6 23 3 12 3 16 0 10
-3 -7 -12 -13 -20 -13 -9 0 -12 5 -8 11 5 8 -1 10 -20 7 -21 -4 -24 -3 -15 8
13 16 7 19 -54 29 -21 3 -46 15 -55 26 -20 24 -32 24 -32 2z m785 -293 c3 -5
1 -10 -4 -10 -6 0 -11 5 -11 10 0 6 2 10 4 10 3 0 8 -4 11 -10z m455 -170 c0
-5 -2 -10 -4 -10 -3 0 -8 5 -11 10 -3 6 -1 10 4 10 6 0 11 -4 11 -10z m-10
-51 c0 -11 -21 -11 -39 0 -9 6 -5 9 13 9 14 0 26 -4 26 -9z"/>
<path d="M6265 3249 c-16 -35 -31 -68 -34 -74 -2 -5 3 -4 11 3 19 15 61 109
56 124 -2 6 -17 -18 -33 -53z"/>
<path d="M5515 2204 c-47 -17 -147 -33 -260 -40 -49 -4 -86 -11 -95 -20 -12
-12 -11 -14 10 -16 32 -2 47 -1 90 7 55 8 260 23 347 25 40 0 36 23 -8 45 -33
18 -33 18 -84 -1z"/>
<path d="M5691 1284 c0 -11 3 -14 6 -6 3 7 2 16 -1 19 -3 4 -6 -2 -5 -13z"/>
<path d="M5290 1241 c0 -5 6 -14 14 -21 8 -6 12 -18 9 -26 -3 -8 0 -14 6 -14
6 0 11 -6 11 -13 0 -7 11 -14 25 -15 14 -1 25 3 25 8 0 6 -4 10 -10 10 -5 0
-9 4 -7 9 4 18 -38 71 -55 71 -10 0 -18 -4 -18 -9z"/>
<path d="M5682 1198 c-8 -11 -7 -16 6 -25 10 -6 19 -24 20 -41 1 -17 7 -44 14
-59 6 -15 12 -34 14 -42 5 -27 27 -71 35 -71 4 0 10 -8 13 -17 3 -10 19 -32
36 -50 16 -18 30 -37 30 -42 0 -6 9 -11 20 -11 11 0 20 5 20 10 0 6 -5 10 -11
10 -5 0 -7 5 -4 10 8 12 -21 61 -87 149 -27 36 -55 87 -63 115 -21 69 -29 81
-43 64z"/>
<path d="M5333 1125 c-10 -11 -9 -17 7 -28 11 -8 17 -17 13 -20 -3 -4 -1 -7 5
-7 14 0 16 26 2 35 -5 3 -7 12 -3 20 7 19 -8 19 -24 0z"/>
<path d="M5343 1049 c-5 -5 -8 -28 -6 -51 5 -38 4 -40 -18 -33 -22 5 -22 5 -7
-8 16 -12 16 -14 -2 -27 -14 -10 -16 -17 -8 -27 6 -7 6 -13 1 -13 -5 0 -9 -9
-9 -20 0 -11 7 -20 14 -20 12 0 12 -3 2 -15 -10 -13 -9 -15 8 -15 12 0 24 -4
27 -10 3 -6 -1 -7 -9 -4 -9 3 -16 1 -16 -5 0 -6 7 -11 17 -11 14 0 14 -2 -2
-20 -10 -11 -15 -23 -12 -27 4 -3 7 -1 7 5 0 7 13 12 28 12 20 0 35 9 50 30
24 32 28 50 12 50 -6 0 -3 14 6 32 11 21 13 33 6 36 -6 2 -9 9 -6 17 3 7 1 16
-5 20 -6 3 -9 16 -6 28 8 29 -17 62 -39 54 -14 -5 -15 -11 -6 -27 7 -13 7 -20
0 -20 -5 0 -11 6 -11 13 -5 36 -3 53 6 59 7 5 6 8 0 8 -6 0 -16 -5 -22 -11z"/>
<path d="M5912 786 c7 -8 15 -12 17 -11 5 6 -10 25 -20 25 -5 0 -4 -6 3 -14z"/>
<path d="M5346 734 c-5 -14 -4 -15 9 -4 17 14 19 20 6 20 -5 0 -12 -7 -15 -16z"/>
<path d="M5977 607 c3 -15 9 -27 14 -27 13 0 11 13 -5 35 -13 18 -14 18 -9 -8z"/>
<path d="M5091 518 c-17 -66 -28 -292 -21 -418 5 -93 5 -95 30 -95 22 0 25 4
24 35 -1 19 -2 146 -3 283 -1 136 -6 247 -10 247 -4 0 -13 -24 -20 -52z"/>
<path d="M5990 556 c0 -8 5 -18 10 -21 6 -3 10 1 10 9 0 8 -4 18 -10 21 -5 3
-10 -1 -10 -9z"/>
</g>
</svg>
